<?xml version="1.0" ?><!DOCTYPE svg  PUBLIC '-//W3C//DTD SVG 1.1//EN'  'http://www.w3.org/Graphics/SVG/1.1/DTD/svg11.dtd'><svg enable-background="new 0 0 128 128" height="128px" id="Layer_1" version="1.1" viewBox="0 0 128 128" width="128px" xml:space="preserve" xmlns="http://www.w3.org/2000/svg" xmlns:xlink="http://www.w3.org/1999/xlink"><g><g><g><g><path d="M32.7,3.2c12.9,0,24.2,8.2,28.2,20.5c0.4,1.2,1.7,1.9,2.9,1.5c1.2,0.3,2.5-0.3,2.9-1.5      C70.6,11.4,82,3.2,94.9,3.2c16.4,0,29.7,13.3,29.7,29.7c0,5.9-1.8,11.7-5.1,16.6c0,0,0,0.1-0.1,0.1c-0.1,0.1-0.2,0.2-0.3,0.3      l-55.4,74.5L8.4,49.8c-0.1-0.1-0.2-0.2-0.3-0.3c0,0,0-0.1-0.1-0.1C4.8,44.5,3,38.8,3,32.8C3,16.5,16.3,3.2,32.7,3.2z" fill="#B0BEC5"/></g><g><path d="M63.8,126.3c-0.6,0-1.2-0.3-1.6-0.8L6.8,51c0,0-0.1-0.1-0.1-0.1c-0.1-0.1-0.2-0.2-0.3-0.3      C2.9,45.3,1,39.2,1,32.8C1,15.4,15.2,1.2,32.7,1.2C46.4,1.2,58.5,10,62.8,23c0.1,0.2,0.3,0.3,0.5,0.2c0.4-0.1,0.7-0.1,1.1,0      c0.2,0,0.4,0,0.4-0.2C69,10,81.1,1.2,94.9,1.2c17.5,0,31.7,14.2,31.7,31.7c0,6.3-1.9,12.4-5.4,17.6l0,0.1      c-0.1,0.2-0.2,0.3-0.3,0.4l-55.4,74.5C65,126,64.4,126.3,63.8,126.3z M9.7,48.3c0.1,0.1,0.2,0.2,0.3,0.4l53.7,72.3l53.8-72.3      c0.1-0.1,0.2-0.2,0.3-0.3c0,0,0-0.1,0.1-0.1c3-4.5,4.7-9.8,4.7-15.4c0-15.2-12.4-27.7-27.7-27.7c-12,0-22.6,7.7-26.3,19.1      c-0.6,2-2.7,3.3-4.8,3c-2.1,0.3-4.1-1-4.8-3C55.3,12.9,44.7,5.2,32.7,5.2C17.4,5.2,5,17.6,5,32.8C5,38.4,6.6,43.7,9.7,48.3z" fill="#37474F"/></g></g></g><g><g><g><rect fill="#FFECB3" height="46" width="56" x="36" y="57"/></g><g><path d="M92,105H36c-1.1,0-2-0.9-2-2V57c0-1.1,0.9-2,2-2h56c1.1,0,2,0.9,2,2v46C94,104.1,93.1,105,92,105z       M38,101h52V59H38V101z" fill="#37474F"/></g></g><g><g><path d="M78,84.2c0,6.6-6.4,11.9-14.2,11.9c-7.9,0-14.2-5.3-14.2-11.9" fill="#FFECB3"/></g><g><path d="M63.8,98.1c-8.9,0-16.2-6.2-16.2-13.9c0-1.1,0.9-2,2-2s2,0.9,2,2c0,5.5,5.5,9.9,12.2,9.9      S76,89.7,76,84.2c0-1.1,0.9-2,2-2s2,0.9,2,2C80,91.9,72.7,98.1,63.8,98.1z" fill="#37474F"/></g></g><g><g><g><path d="M58,71.1c0,2.3-1.8,4.1-4.1,4.1c-2.3,0-4.1-1.8-4.1-4.1s1.8-4.1,4.1-4.1" fill="#FFAB00"/></g><g><path d="M53.9,77.2c-3.4,0-6.1-2.7-6.1-6.1s2.7-6.1,6.1-6.1c1.1,0,2,0.9,2,2s-0.9,2-2,2c-1.2,0-2.1,0.9-2.1,2.1       s0.9,2.1,2.1,2.1c1.2,0,2.1-0.9,2.1-2.1c0-1.1,0.9-2,2-2s2,0.9,2,2C60,74.5,57.2,77.2,53.9,77.2z" fill="#37474F"/></g></g><g><g><path d="M77.7,71.1c0,2.3-1.8,4.1-4.1,4.1s-4.1-1.8-4.1-4.1s1.8-4.1,4.1-4.1" fill="#FFAB00"/></g><g><path d="M73.6,77.2c-3.4,0-6.1-2.7-6.1-6.1s2.7-6.1,6.1-6.1c1.1,0,2,0.9,2,2s-0.9,2-2,2c-1.2,0-2.1,0.9-2.1,2.1       s0.9,2.1,2.1,2.1c1.2,0,2.1-0.9,2.1-2.1c0-1.1,0.9-2,2-2s2,0.9,2,2C79.7,74.5,77,77.2,73.6,77.2z" fill="#37474F"/></g></g></g><g><g><g><rect fill="#FFAB00" height="16" width="11" x="24" y="72"/></g><g><path d="M35,90H24c-1.1,0-2-0.9-2-2V72c0-1.1,0.9-2,2-2h11c1.1,0,2,0.9,2,2v16C37,89.1,36.1,90,35,90z M26,86h7       V74h-7V86z" fill="#37474F"/></g></g><g><g><rect fill="#FFAB00" height="16" width="10" x="93" y="72"/></g><g><path d="M103,90H93c-1.1,0-2-0.9-2-2V72c0-1.1,0.9-2,2-2h10c1.1,0,2,0.9,2,2v16C105,89.1,104.1,90,103,90z        M95,86h6V74h-6V86z" fill="#37474F"/></g></g></g><g><g><g><g><line fill="#FFFFFF" x1="64" x2="64" y1="50" y2="38"/></g><g><path d="M64,52c-1.1,0-2-0.9-2-2V38c0-1.1,0.9-2,2-2s2,0.9,2,2v12C66,51.1,65.1,52,64,52z" fill="#37474F"/></g></g><g><g><circle cx="63.8" cy="30.8" fill="#FFFFFF" r="7"/></g><g><path d="M63.8,39.8c-4.9,0-9-4-9-9s4-9,9-9s9,4,9,9S68.7,39.8,63.8,39.8z M63.8,25.9c-2.7,0-5,2.2-5,5        s2.2,5,5,5s5-2.2,5-5S66.5,25.9,63.8,25.9z" fill="#37474F"/></g></g></g><g><g><line fill="#FFFFFF" x1="57" x2="70" y1="52" y2="52"/></g><g><path d="M70,54H57c-1.1,0-2-0.9-2-2s0.9-2,2-2h13c1.1,0,2,0.9,2,2S71.1,54,70,54z" fill="#37474F"/></g></g></g></g><g><g><line fill="#FFFFFF" x1="56" x2="73" y1="111" y2="111"/></g><g><path d="M73,113H56c-1.1,0-2-0.9-2-2s0.9-2,2-2h17c1.1,0,2,0.9,2,2S74.1,113,73,113z" fill="#37474F"/></g></g></g></svg>